# xmcd
#
# Track frame offsets:
#	150
#	18335
#	35137
#	55617
#	72690
#	92287
#	111205
#	128965
#	145875
#	164447
#
# Disc length: 2434 seconds
#
# Revision: 0
# Processed by: cddbd v1.5.1PL0 Copyright (c) Steve Scherf et al.
# Submitted via: dBpowerAMP V4.0
#
DISCID=8a09800a
DTITLE=Della Street - Faces
DYEAR=1989
DGENRE=Rock and Roll
TTITLE0=Forever
TTITLE1=Green
TTITLE2=In My Lonely Life
TTITLE3=Hurricane
TTITLE4=Any Port In A Storm
TTITLE5=Incidentally Bentley
TTITLE6=Gemini
TTITLE7=Analogy
TTITLE8=Faces
TTITLE9=(Song From) The Beach
EXTD=
EXTT0=
EXTT1=
EXTT2=
EXTT3=
EXTT4=
EXTT5=
EXTT6=
EXTT7=
EXTT8=
EXTT9=
PLAYORDER=
